#N canvas 579 54 700 576 10;
#X declare -lib Gem;
#X text 149 -1 GEM object;
#X obj 37 37 cnv 15 280 500 empty empty empty 20 12 0 14 -228992 -66577
0;
#X text 39 23 Example:;
#X obj 212 419 cnv 15 100 60 empty empty empty 20 12 0 14 -195568 -66577
0;
#N canvas 0 22 450 300 gemwin 0;
#X obj 132 136 gemwin;
#X obj 67 89 outlet;
#X obj 67 10 inlet;
#X msg 67 70 set destroy;
#X msg 132 112 create \, 1;
#X msg 198 112 destroy;
#X msg 156 71 set create;
#X obj 67 41 route create;
#X connect 2 0 7 0;
#X connect 3 0 1 0;
#X connect 4 0 0 0;
#X connect 5 0 0 0;
#X connect 6 0 1 0;
#X connect 7 0 3 0;
#X connect 7 0 4 0;
#X connect 7 1 6 0;
#X connect 7 1 5 0;
#X restore 215 458 pd gemwin;
#X msg 215 437 destroy;
#X text 214 420 Create window:;
#X obj 41 76 cnv 15 230 280 empty empty empty 20 12 0 14 -24198 -66577
0;
#X obj 45 516 rectangle 4 3;
#X obj 45 492 pix_texture;
#X obj 45 48 gemhead;
#X msg 69 102 dimen 64 64;
#X msg 56 80 dimen 256 128;
#X msg 113 251 enumerate;
#X msg 119 273 dialog;
#X msg 79 125 colorspace RGBA;
#X msg 87 201 device 1;
#X msg 120 302 driver dv;
#X obj 96 449 t a a;
#X obj 96 470 print info;
#X obj 133 449 s \$0-info;
#X obj 64 366 t a a;
#N canvas 166 121 570 420 device 0;
#X obj 204 60 cnv 20 20 20 empty \$0-open-canvas 1 4 10 0 16 -233017
-1 0;
#X obj 60 61 hradio 18 1 0 8 empty empty empty 0 -6 0 8 -225271 -1
-1 1;
#X obj 60 13 inlet;
#X msg 160 254 label \$1;
#X obj 160 232 makefilename %d;
#X obj 60 108 int;
#X obj 60 337 outlet;
#X obj 160 277 send \$0-open-canvas;
#X msg 130 170 device \$1;
#X obj 60 130 t b f;
#X obj 130 192 t a a;
#X obj 130 298 list prepend set;
#X obj 130 320 list trim;
#X obj 160 211 route device;
#X obj 130 116 loadbang;
#X msg 130 138 0;
#X connect 1 0 5 0;
#X connect 2 0 1 0;
#X connect 3 0 7 0;
#X connect 4 0 3 0;
#X connect 5 0 9 0;
#X connect 8 0 10 0;
#X connect 9 0 6 0;
#X connect 9 1 8 0;
#X connect 10 0 11 0;
#X connect 10 1 13 0;
#X connect 11 0 12 0;
#X connect 12 0 6 0;
#X connect 13 0 4 0;
#X connect 14 0 15 0;
#X connect 15 0 8 0;
#X coords 0 -1 1 1 165 20 1 60 60;
#X restore 102 179 pd device;
#X obj 41 403 cnv 15 80 30 empty empty empty 20 12 0 14 -24198 -66577
0;
#X obj 45 408 pix_video;
#X obj 135 383 print videoctl;
#X obj 125 336 tgl 15 0 empty empty empty 17 7 0 10 -262144 -1 -1 0
1;
#X msg 143 335 driver \$1;
#X text 164 276 (if available);
#X obj 135 364 r \$0-ctl;
#X msg 103 225 device /dev/fw1;
#X obj 216 -2 declare -lib Gem;
#X msg 83 148 colorspace GREY;
#X text 474 385 type : jpg;
#X text 539 384 quality : 99;
#X msg 340 315 auto \$1;
#X obj 340 296 tgl 15 0 empty empty empty 17 7 0 10 -262144 -1 -1 0
1;
#X obj 413 370 bng 15 250 50 0 empty empty empty 17 7 0 10 -262144
-1 -1;
#X text 444 368 WRITE! one file;
#X obj 312 513 pix_writer;
#X text 394 315 activate/deactivate auto snapshot;
#X msg 400 474 file /home/pi/Escritorio/wattec/pix 99;
#X obj 408 7 loadbang;
#X msg 321 79 0;
#X obj 426 182 delay 100;
#X obj 426 209 bng 15 250 50 0 empty empty empty 17 7 0 10 -262144
-1 -1;
#X obj 520 128 tgl 15 0 empty empty empty 17 7 0 10 -262144 -1 -1 0
1;
#X obj 427 288 spigot;
#X text 538 126 on off rec;
#X obj 415 110 delay 5000;
#X obj 488 76 delay 6000;
#X msg 401 414 file /media/wat/pix 99;
#X obj 413 237 metro 1500;
#X msg 403 447 file /home/a/Desktop/wat/pix 99;
#X connect 4 0 5 0;
#X connect 5 0 4 0;
#X connect 9 0 8 0;
#X connect 10 0 24 0;
#X connect 11 0 21 0;
#X connect 12 0 21 0;
#X connect 13 0 21 0;
#X connect 14 0 21 0;
#X connect 15 0 21 0;
#X connect 16 0 21 0;
#X connect 17 0 21 0;
#X connect 18 0 19 0;
#X connect 18 1 20 0;
#X connect 21 0 24 0;
#X connect 21 1 25 0;
#X connect 22 0 16 0;
#X connect 24 0 9 0;
#X connect 24 0 39 0;
#X connect 24 1 18 0;
#X connect 26 0 27 0;
#X connect 27 0 21 0;
#X connect 29 0 21 0;
#X connect 30 0 21 0;
#X connect 32 0 21 0;
#X connect 35 0 39 0;
#X connect 36 0 35 0;
#X connect 37 0 39 0;
#X connect 42 0 51 0;
#X connect 42 0 43 0;
#X connect 42 0 32 0;
#X connect 42 0 49 0;
#X connect 42 0 50 0;
#X connect 43 0 22 0;
#X connect 44 0 45 0;
#X connect 45 0 52 0;
#X connect 46 0 44 0;
#X connect 46 0 47 1;
#X connect 47 0 37 0;
#X connect 49 0 5 0;
#X connect 50 0 46 0;
#X connect 51 0 39 0;
#X connect 52 0 47 0;
#X connect 53 0 39 0;
